<svg version="1.1" id="Layer_1" xmlns="http://www.w3.org/2000/svg" xmlns:xlink="http://www.w3.org/1999/xlink" x="0px" y="0px"
	 width="100%" viewBox="0 0 1080 1080" enable-background="new 0 0 1080 1080" xml:space="preserve">
<path opacity="0" stroke="none" 
	d="
M570.000000,1081.000000 
	C380.021881,1081.000000 190.543732,1081.000000 1.032801,1081.000000 
	C1.032801,721.063416 1.032801,361.126831 1.032801,1.095114 
	C360.895050,1.095114 720.790100,1.095114 1080.842529,1.095114 
	C1080.842529,360.999939 1080.842529,720.999939 1080.842529,1081.000000 
	C910.793030,1081.000000 740.646545,1081.000000 570.000000,1081.000000 
M764.267883,101.255882 
	C684.094666,60.962910 599.214844,43.501972 509.660492,48.945259 
	C479.535248,50.776321 449.788910,55.371601 420.530762,62.761997 
	C341.195587,82.801483 271.128632,120.442245 210.398941,175.135132 
	C153.129593,226.711624 110.577736,288.677826 82.169052,360.352142 
	C62.060371,411.085846 50.940903,463.790741 48.333096,518.204102 
	C46.647591,553.373108 48.937481,588.383667 54.836452,623.181396 
	C65.595665,686.649536 87.850914,745.718506 121.683891,800.424561 
	C160.872543,863.790527 211.921127,915.523804 274.583466,955.833435 
	C349.227264,1003.850464 431.054077,1029.415161 519.527405,1033.631592 
	C561.776733,1035.645142 603.672546,1031.969849 645.069275,1022.988098 
	C730.243103,1004.507996 805.223694,965.966614 870.204834,908.081299 
	C921.138855,862.709229 960.517334,808.683167 989.115662,746.751221 
	C1012.210327,696.737976 1026.171509,644.236938 1031.781860,589.534729 
	C1034.468872,563.335510 1034.781250,537.034912 1033.149048,510.699860 
	C1031.269897,480.383514 1026.785767,450.483063 1019.337646,421.073792 
	C1000.642639,347.256012 966.867432,281.058655 917.754761,222.841782 
	C875.003113,172.165024 823.884216,131.912170 764.267883,101.255882 
z"/>
<path fill="#38B6FF" opacity="1.000000" stroke="none" 
	d="
M764.585693,101.446808 
	C823.884216,131.912170 875.003113,172.165024 917.754761,222.841782 
	C966.867432,281.058655 1000.642639,347.256012 1019.337646,421.073792 
	C1026.785767,450.483063 1031.269897,480.383514 1033.149048,510.699860 
	C1034.781250,537.034912 1034.468872,563.335510 1031.781860,589.534729 
	C1026.171509,644.236938 1012.210327,696.737976 989.115662,746.751221 
	C960.517334,808.683167 921.138855,862.709229 870.204834,908.081299 
	C805.223694,965.966614 730.243103,1004.507996 645.069275,1022.988098 
	C603.672546,1031.969849 561.776733,1035.645142 519.527405,1033.631592 
	C431.054077,1029.415161 349.227264,1003.850464 274.583466,955.833435 
	C211.921127,915.523804 160.872543,863.790527 121.683891,800.424561 
	C87.850914,745.718506 65.595665,686.649536 54.836452,623.181396 
	C48.937481,588.383667 46.647591,553.373108 48.333096,518.204102 
	C50.940903,463.790741 62.060371,411.085846 82.169052,360.352142 
	C110.577736,288.677826 153.129593,226.711624 210.398941,175.135132 
	C271.128632,120.442245 341.195587,82.801483 420.530762,62.761997 
	C449.788910,55.371601 479.535248,50.776321 509.660492,48.945259 
	C599.214844,43.501972 684.094666,60.962910 764.585693,101.446808 
M196.063919,659.500000 
	C196.063919,719.765259 196.063919,780.030518 196.063919,840.448608 
	C213.002014,840.448608 229.389725,840.448608 245.709381,840.448608 
	C245.709381,640.591370 245.709381,441.064850 245.709381,241.479004 
	C229.089569,241.479004 212.832108,241.479004 196.063934,241.479004 
	C196.063934,380.657776 196.063934,519.578918 196.063919,659.500000 
M824.853943,626.386353 
	C833.762268,642.138855 850.096741,645.641479 864.553223,634.839783 
	C898.026611,609.829041 931.508179,584.828918 964.876770,559.679016 
	C967.264099,557.879700 969.365112,555.163940 970.568054,552.421875 
	C975.963501,540.123840 972.464294,527.799011 961.807678,519.868530 
	C951.657410,512.314819 941.560669,504.689087 931.427063,497.112915 
	C909.027527,480.366577 886.623169,463.626648 864.213318,446.894196 
	C855.242371,440.195953 845.602417,438.887329 835.682068,444.288391 
	C826.736328,449.158783 822.552368,456.831207 822.903015,467.296814 
	C823.315430,479.609924 822.999634,491.947479 822.999634,504.274414 
	C822.999634,508.050110 822.999634,511.825806 822.999634,516.137695 
	C808.992859,516.137695 795.595703,516.137695 782.111084,516.137695 
	C782.111084,532.947998 782.111084,549.197693 782.111084,566.010254 
	C795.758118,566.010254 809.153503,566.010254 822.999573,566.010254 
	C822.999573,568.352173 822.999634,570.148560 822.999634,571.944946 
	C822.999634,586.937195 822.919861,601.930176 823.068359,616.920959 
	C823.097351,619.843201 824.013245,622.756653 824.853943,626.386353 
M519.861633,839.584351 
	C520.493286,837.746155 521.667419,835.910278 521.675293,834.069397 
	C521.792969,806.570190 521.756714,779.070312 521.756775,751.570557 
	C521.756775,749.620239 521.756775,747.669922 521.756775,745.142395 
	C524.290466,745.142395 526.243835,745.178162 528.195618,745.136780 
	C545.338013,744.773499 562.574219,745.382446 579.597229,743.759583 
	C598.401733,741.966919 614.864502,733.827881 626.953735,718.780029 
	C642.464783,699.472961 645.645691,677.261902 640.298645,653.677551 
	C635.007751,630.341309 620.728577,614.534851 598.448853,605.804932 
	C586.307251,601.047424 573.668396,599.414978 560.777344,599.365112 
	C535.611267,599.267700 510.444611,599.331421 485.278198,599.344055 
	C483.655273,599.344910 482.032410,599.479492 480.273224,599.557922 
	C480.273224,679.687988 480.273224,759.421448 480.273224,839.650635 
	C493.370911,839.650635 506.167236,839.650635 519.861633,839.584351 
M420.594604,239.998016 
	C417.479462,240.774994 413.481384,238.039459 411.264404,242.403610 
	C399.207672,266.137451 387.124451,289.857880 375.089569,313.602814 
	C374.006958,315.738861 373.203674,318.016510 372.015106,320.834290 
	C371.041077,319.562347 370.460510,319.011200 370.126190,318.337799 
	C357.627869,293.162231 345.177948,267.962524 332.596161,242.828812 
	C331.980713,241.599396 330.247955,240.143417 329.018066,240.127396 
	C314.584747,239.939270 300.148041,240.006683 285.105011,240.006683 
	C286.023285,241.906784 286.605194,243.239960 287.293274,244.515900 
	C306.572266,280.266052 325.803497,316.042297 345.237946,351.707794 
	C347.241730,355.385040 347.219482,358.101990 345.210724,361.744354 
	C326.077667,396.436676 307.131073,431.231842 288.144287,466.004761 
	C285.708221,470.466278 283.348877,474.969666 280.663086,479.998413 
	C295.481537,479.998413 309.464508,480.063080 323.444519,479.888550 
	C324.704773,479.872833 326.504791,478.602844 327.113525,477.427979 
	C340.507782,451.576935 353.781464,425.663330 367.034821,399.739563 
	C368.247375,397.367737 369.167175,394.846252 370.753113,391.163025 
	C373.772308,398.117676 375.910950,403.846008 378.669525,409.258362 
	C390.157990,431.799133 401.886292,454.217682 413.370026,476.760864 
	C414.750732,479.471252 416.472412,480.077423 419.233978,480.052399 
	C431.898926,479.937531 444.565460,480.010162 457.231415,479.988556 
	C458.462250,479.986420 459.692749,479.799469 461.447296,479.655273 
	C460.448761,477.652069 459.768951,476.180389 458.998260,474.757996 
	C438.300690,436.557861 417.625854,398.345306 396.825317,360.201324 
	C395.230225,357.276215 394.962677,355.156006 396.678345,352.038483 
	C416.261993,316.453827 435.646088,280.759247 455.072021,245.087845 
	C455.837158,243.682816 456.487854,242.215469 457.573212,239.998016 
	C445.074646,239.998016 433.322906,239.998016 420.594604,239.998016 
M378.779175,803.118652 
	C375.074890,803.111145 376.215515,800.273865 376.213715,798.398804 
	C376.162964,745.732239 376.171326,693.065674 376.182770,640.399048 
	C376.183044,639.107666 376.328552,637.816284 376.441711,635.936646 
	C393.594299,635.936646 410.478790,635.936646 427.792999,635.936646 
	C427.792999,625.365601 427.555603,615.390198 427.897339,605.434753 
	C428.058289,600.745361 426.850494,599.198669 421.907013,599.219666 
	C377.407867,599.408875 332.907562,599.330322 288.407623,599.330322 
	C286.782257,599.330322 285.156921,599.330322 283.256348,599.330322 
	C283.256348,611.764893 283.256348,623.653687 283.256348,636.087341 
	C300.268799,636.087341 317.006805,636.087341 333.770874,636.087341 
	C333.770874,692.015076 333.770874,747.396973 333.770874,803.374512 
	C316.662811,803.374512 299.937195,803.374512 283.318909,803.374512 
	C283.318909,815.724548 283.318909,827.474670 283.318909,839.456421 
	C284.956146,839.538574 286.261566,839.661011 287.566986,839.661316 
	C332.566956,839.671204 377.566895,839.669983 422.566864,839.667114 
	C423.566254,839.667053 424.689331,839.908081 425.531006,839.533691 
	C426.411041,839.142151 427.645538,838.149719 427.654388,837.407104 
	C427.789276,826.135620 427.748047,814.862122 427.748047,803.126892 
	C411.323303,803.126892 395.526733,803.126892 378.779175,803.118652 
M281.842712,522.582031 
	C281.842712,536.975220 281.842712,551.368469 281.842712,565.651978 
	C298.959930,565.651978 315.197540,565.651978 331.584930,565.651978 
	C331.584930,549.058289 331.584930,532.815613 331.584930,516.344849 
	C314.951355,516.344849 298.585510,516.344849 281.842499,516.344849 
	C281.842499,518.329346 281.842499,519.968811 281.842712,522.582031 
M424.413391,515.997925 
	C410.326019,515.997925 396.238678,515.997925 382.131897,515.997925 
	C382.131897,532.991028 382.131897,549.239807 382.131897,565.613892 
	C398.782593,565.613892 415.141388,565.613892 431.550781,565.613892 
	C431.550781,548.981140 431.550781,532.738220 431.550781,515.997925 
	C429.299072,515.997925 427.342407,515.997925 424.413391,515.997925 
M504.500000,515.997925 
	C497.067627,515.997925 489.635284,515.997925 482.100433,515.997925 
	C482.100433,532.937927 482.100433,549.184814 482.100433,565.647827 
	C498.719147,565.647827 515.078674,565.647827 531.583496,565.647827 
	C531.583496,549.051636 531.583496,532.810608 531.583496,515.997925 
	C522.718567,515.997925 514.109314,515.997925 504.500000,515.997925 
M631.845703,518.806396 
	C632.067566,515.128967 629.323425,516.030151 627.361084,516.023376 
	C613.534912,515.975647 599.708557,515.988037 585.882324,516.015686 
	C584.614685,516.018250 583.347595,516.261719 582.155762,516.385498 
	C582.155762,533.030640 582.155762,549.281250 582.155762,565.587585 
	C598.831299,565.587585 615.190308,565.587585 631.850403,565.587585 
	C631.850403,550.033875 631.850403,534.892883 631.845703,518.806396 
M681.842651,540.500000 
	C681.842651,548.908569 681.842651,557.317139 681.842651,565.682007 
	C698.904419,565.682007 715.141968,565.682007 731.447266,565.682007 
	C731.447266,548.993408 731.447266,532.627991 731.447266,516.313477 
	C714.789673,516.313477 698.538025,516.313477 681.842468,516.313477 
	C681.842468,524.247131 681.842468,531.873596 681.842651,540.500000 
z"/>
<path fill="#000101" opacity="1.000000" stroke="none" 
	d="
M196.063934,659.000000 
	C196.063934,519.578918 196.063934,380.657776 196.063934,241.479004 
	C212.832108,241.479004 229.089569,241.479004 245.709381,241.479004 
	C245.709381,441.064850 245.709381,640.591370 245.709381,840.448608 
	C229.389725,840.448608 213.002014,840.448608 196.063919,840.448608 
	C196.063919,780.030518 196.063919,719.765259 196.063934,659.000000 
z"/>
<path fill="#545454" opacity="1.000000" stroke="none" 
	d="
M824.687012,626.030273 
	C824.013245,622.756653 823.097351,619.843201 823.068359,616.920959 
	C822.919861,601.930176 822.999634,586.937195 822.999634,571.944946 
	C822.999634,570.148560 822.999573,568.352173 822.999573,566.010254 
	C809.153503,566.010254 795.758118,566.010254 782.111084,566.010254 
	C782.111084,549.197693 782.111084,532.947998 782.111084,516.137695 
	C795.595703,516.137695 808.992859,516.137695 822.999634,516.137695 
	C822.999634,511.825806 822.999634,508.050110 822.999634,504.274414 
	C822.999634,491.947479 823.315430,479.609924 822.903015,467.296814 
	C822.552368,456.831207 826.736328,449.158783 835.682068,444.288391 
	C845.602417,438.887329 855.242371,440.195953 864.213318,446.894196 
	C886.623169,463.626648 909.027527,480.366577 931.427063,497.112915 
	C941.560669,504.689087 951.657410,512.314819 961.807678,519.868530 
	C972.464294,527.799011 975.963501,540.123840 970.568054,552.421875 
	C969.365112,555.163940 967.264099,557.879700 964.876770,559.679016 
	C931.508179,584.828918 898.026611,609.829041 864.553223,634.839783 
	C850.096741,645.641479 833.762268,642.138855 824.687012,626.030273 
z"/>
<path fill="#FDFEFF" opacity="1.000000" stroke="none" 
	d="
M519.412598,839.617493 
	C506.167236,839.650635 493.370911,839.650635 480.273224,839.650635 
	C480.273224,759.421448 480.273224,679.687988 480.273224,599.557922 
	C482.032410,599.479492 483.655273,599.344910 485.278198,599.344055 
	C510.444611,599.331421 535.611267,599.267700 560.777344,599.365112 
	C573.668396,599.414978 586.307251,601.047424 598.448853,605.804932 
	C620.728577,614.534851 635.007751,630.341309 640.298645,653.677551 
	C645.645691,677.261902 642.464783,699.472961 626.953735,718.780029 
	C614.864502,733.827881 598.401733,741.966919 579.597229,743.759583 
	C562.574219,745.382446 545.338013,744.773499 528.195618,745.136780 
	C526.243835,745.178162 524.290466,745.142395 521.756775,745.142395 
	C521.756775,747.669922 521.756775,749.620239 521.756775,751.570557 
	C521.756714,779.070312 521.792969,806.570190 521.675293,834.069397 
	C521.667419,835.910278 520.493286,837.746155 519.412598,839.617493 
M599.605591,664.261597 
	C596.326660,647.918457 585.546814,636.420593 566.886719,635.441650 
	C555.097717,634.823120 543.260925,635.111633 531.445374,635.006897 
	C528.339355,634.979370 525.232971,635.002808 522.187378,635.002808 
	C522.187378,660.356812 522.187378,685.037170 522.187378,709.885071 
	C536.753235,709.885071 550.901917,710.271423 565.018799,709.767639 
	C577.192322,709.333252 587.740662,704.914246 594.589661,694.030762 
	C600.210754,685.098389 600.661255,675.223999 599.605591,664.261597 
z"/>
<path fill="#FEFFFF" opacity="1.000000" stroke="none" 
	d="
M421.082886,239.998016 
	C433.322906,239.998016 445.074646,239.998016 457.573212,239.998016 
	C456.487854,242.215469 455.837158,243.682816 455.072021,245.087845 
	C435.646088,280.759247 416.261993,316.453827 396.678345,352.038483 
	C394.962677,355.156006 395.230225,357.276215 396.825317,360.201324 
	C417.625854,398.345306 438.300690,436.557861 458.998260,474.757996 
	C459.768951,476.180389 460.448761,477.652069 461.447296,479.655273 
	C459.692749,479.799469 458.462250,479.986420 457.231415,479.988556 
	C444.565460,480.010162 431.898926,479.937531 419.233978,480.052399 
	C416.472412,480.077423 414.750732,479.471252 413.370026,476.760864 
	C401.886292,454.217682 390.157990,431.799133 378.669525,409.258362 
	C375.910950,403.846008 373.772308,398.117676 370.753113,391.163025 
	C369.167175,394.846252 368.247375,397.367737 367.034821,399.739563 
	C353.781464,425.663330 340.507782,451.576935 327.113525,477.427979 
	C326.504791,478.602844 324.704773,479.872833 323.444519,479.888550 
	C309.464508,480.063080 295.481537,479.998413 280.663086,479.998413 
	C283.348877,474.969666 285.708221,470.466278 288.144287,466.004761 
	C307.131073,431.231842 326.077667,396.436676 345.210724,361.744354 
	C347.219482,358.101990 347.241730,355.385040 345.237946,351.707794 
	C325.803497,316.042297 306.572266,280.266052 287.293274,244.515900 
	C286.605194,243.239960 286.023285,241.906784 285.105011,240.006683 
	C300.148041,240.006683 314.584747,239.939270 329.018066,240.127396 
	C330.247955,240.143417 331.980713,241.599396 332.596161,242.828812 
	C345.177948,267.962524 357.627869,293.162231 370.126190,318.337799 
	C370.460510,319.011200 371.041077,319.562347 372.015106,320.834290 
	C373.203674,318.016510 374.006958,315.738861 375.089569,313.602814 
	C387.124451,289.857880 399.207672,266.137451 411.264404,242.403610 
	C413.481384,238.039459 417.479462,240.774994 421.082886,239.998016 
z"/>
<path fill="#FCFEFF" opacity="1.000000" stroke="none" 
	d="
M379.254700,803.122803 
	C395.526733,803.126892 411.323303,803.126892 427.748047,803.126892 
	C427.748047,814.862122 427.789276,826.135620 427.654388,837.407104 
	C427.645538,838.149719 426.411041,839.142151 425.531006,839.533691 
	C424.689331,839.908081 423.566254,839.667053 422.566864,839.667114 
	C377.566895,839.669983 332.566956,839.671204 287.566986,839.661316 
	C286.261566,839.661011 284.956146,839.538574 283.318909,839.456421 
	C283.318909,827.474670 283.318909,815.724548 283.318909,803.374512 
	C299.937195,803.374512 316.662811,803.374512 333.770874,803.374512 
	C333.770874,747.396973 333.770874,692.015076 333.770874,636.087341 
	C317.006805,636.087341 300.268799,636.087341 283.256348,636.087341 
	C283.256348,623.653687 283.256348,611.764893 283.256348,599.330322 
	C285.156921,599.330322 286.782257,599.330322 288.407623,599.330322 
	C332.907562,599.330322 377.407867,599.408875 421.907013,599.219666 
	C426.850494,599.198669 428.058289,600.745361 427.897339,605.434753 
	C427.555603,615.390198 427.792999,625.365601 427.792999,635.936646 
	C410.478790,635.936646 393.594299,635.936646 376.441711,635.936646 
	C376.328552,637.816284 376.183044,639.107666 376.182770,640.399048 
	C376.171326,693.065674 376.162964,745.732239 376.213715,798.398804 
	C376.215515,800.273865 375.074890,803.111145 379.254700,803.122803 
z"/>
<path fill="#545555" opacity="1.000000" stroke="none" 
	d="
M281.842590,522.095215 
	C281.842499,519.968811 281.842499,518.329346 281.842499,516.344849 
	C298.585510,516.344849 314.951355,516.344849 331.584930,516.344849 
	C331.584930,532.815613 331.584930,549.058289 331.584930,565.651978 
	C315.197540,565.651978 298.959930,565.651978 281.842712,565.651978 
	C281.842712,551.368469 281.842712,536.975220 281.842590,522.095215 
z"/>
<path fill="#545555" opacity="1.000000" stroke="none" 
	d="
M424.899567,515.997925 
	C427.342407,515.997925 429.299072,515.997925 431.550781,515.997925 
	C431.550781,532.738220 431.550781,548.981140 431.550781,565.613892 
	C415.141388,565.613892 398.782593,565.613892 382.131897,565.613892 
	C382.131897,549.239807 382.131897,532.991028 382.131897,515.997925 
	C396.238678,515.997925 410.326019,515.997925 424.899567,515.997925 
z"/>
<path fill="#545555" opacity="1.000000" stroke="none" 
	d="
M505.000000,515.997925 
	C514.109314,515.997925 522.718567,515.997925 531.583496,515.997925 
	C531.583496,532.810608 531.583496,549.051636 531.583496,565.647827 
	C515.078674,565.647827 498.719147,565.647827 482.100433,565.647827 
	C482.100433,549.184814 482.100433,532.937927 482.100433,515.997925 
	C489.635284,515.997925 497.067627,515.997925 505.000000,515.997925 
z"/>
<path fill="#545555" opacity="1.000000" stroke="none" 
	d="
M631.848022,519.279114 
	C631.850403,534.892883 631.850403,550.033875 631.850403,565.587585 
	C615.190308,565.587585 598.831299,565.587585 582.155762,565.587585 
	C582.155762,549.281250 582.155762,533.030640 582.155762,516.385498 
	C583.347595,516.261719 584.614685,516.018250 585.882324,516.015686 
	C599.708557,515.988037 613.534912,515.975647 627.361084,516.023376 
	C629.323425,516.030151 632.067566,515.128967 631.848022,519.279114 
z"/>
<path fill="#545555" opacity="1.000000" stroke="none" 
	d="
M681.842529,540.000000 
	C681.842468,531.873596 681.842468,524.247131 681.842468,516.313477 
	C698.538025,516.313477 714.789673,516.313477 731.447266,516.313477 
	C731.447266,532.627991 731.447266,548.993408 731.447266,565.682007 
	C715.141968,565.682007 698.904419,565.682007 681.842651,565.682007 
	C681.842651,557.317139 681.842651,548.908569 681.842529,540.000000 
z"/>
<path fill="#38B6FF" opacity="1.000000" stroke="none" 
	d="
M599.711487,664.690308 
	C600.661255,675.223999 600.210754,685.098389 594.589661,694.030762 
	C587.740662,704.914246 577.192322,709.333252 565.018799,709.767639 
	C550.901917,710.271423 536.753235,709.885071 522.187378,709.885071 
	C522.187378,685.037170 522.187378,660.356812 522.187378,635.002808 
	C525.232971,635.002808 528.339355,634.979370 531.445374,635.006897 
	C543.260925,635.111633 555.097717,634.823120 566.886719,635.441650 
	C585.546814,636.420593 596.326660,647.918457 599.711487,664.690308 
z"/>
</svg>